HIERARCHY
ROOT Hips
{
	OFFSET 0.000000 8.830580 0.000000
	CHANNELS 6 Xposition Yposition Zposition Zrotation Yrotation Xrotation 
	JOINT Spine
	{
		OFFSET 0.000000 0.010000 0.000000
		CHANNELS 3 Zrotation Yrotation Xrotation
		JOINT Spine1
		{
			OFFSET 0.000000 2.459130 0.000000
			CHANNELS 3 Zrotation Yrotation Xrotation
			JOINT Neck
			{
				OFFSET 0.000000 2.484630 0.000000
				CHANNELS 3 Zrotation Yrotation Xrotation
				JOINT Head_virtual
				{
					OFFSET 0.000000 0.000000 0.000000
					CHANNELS 3 Zrotation Yrotation Xrotation
					JOINT Head
					{
						OFFSET 0.000000 0.927525 0.000000
						CHANNELS 3 Zrotation Yrotation Xrotation
						End Site
						{
							OFFSET 0.000000 0.000000 0.000000
						}
					}
				}
				JOINT LeftUpArm_virtual
				{
					OFFSET 0.000000 0.000000 0.000000
					CHANNELS 3 Zrotation Yrotation Xrotation
					JOINT LeftUpArm
					{
						OFFSET 1.248820 0.000000 0.000000
						CHANNELS 3 Zrotation Yrotation Xrotation
						JOINT LeftForeArm
						{
							OFFSET 2.597580 0.000000 0.000000
							CHANNELS 3 Zrotation Yrotation Xrotation
							JOINT LeftHand
							{
								OFFSET 2.455420 0.000000 0.000000
								CHANNELS 3 Zrotation Yrotation Xrotation
								End Site
								{
									OFFSET 0.000000 0.000000 0.000000
								}
							}
						}
					}
				}
				JOINT RightUpArm_virtual
				{
					OFFSET -0.000000 -0.000000 -0.000000
					CHANNELS 3 Zrotation Yrotation Xrotation
					JOINT RightUpArm
					{
						OFFSET -1.248820 -0.000000 -0.000000
						CHANNELS 3 Zrotation Yrotation Xrotation
						JOINT RightForeArm
						{
							OFFSET -2.597580 -0.000000 -0.000000
							CHANNELS 3 Zrotation Yrotation Xrotation
							JOINT RightHand
							{
								OFFSET -2.455420 -0.000000 -0.000000
								CHANNELS 3 Zrotation Yrotation Xrotation
								End Site
								{
									OFFSET 0.000000 0.000000 0.000000
								}
							}
						}
					}
				}
			}
		}
	}
	JOINT LeftUpLeg
	{
		OFFSET 1.271939 0.000000 0.000000
		CHANNELS 3 Zrotation Yrotation Xrotation
		JOINT LeftLowLeg
		{
			OFFSET 0.000000 -4.342910 0.000000
			CHANNELS 3 Zrotation Yrotation Xrotation
			JOINT LeftFoot
			{
				OFFSET 0.000000 -4.487670 0.000000
				CHANNELS 3 Zrotation Yrotation Xrotation
				JOINT LeftToeBase
				{
					OFFSET 0.000000 0.000000 1.515070
					CHANNELS 3 Zrotation Yrotation Xrotation
					End Site
					{
						OFFSET 0.000000 0.000000 0.000000
					}
				}
			}
		}
	}
	JOINT RightUpLeg
	{
		OFFSET -1.271939 0.000000 0.000000
		CHANNELS 3 Zrotation Yrotation Xrotation
		JOINT RightLowLeg
		{
			OFFSET 0.000000 -4.342910 0.000000
			CHANNELS 3 Zrotation Yrotation Xrotation
			JOINT RightFoot
			{
				OFFSET 0.000000 -4.487670 0.000000
				CHANNELS 3 Zrotation Yrotation Xrotation
				JOINT RightToeBase
				{
					OFFSET 0.000000 0.000000 1.515070
					CHANNELS 3 Zrotation Yrotation Xrotation
					End Site
					{
						OFFSET 0.000000 0.000000 0.000000
					}
				}
			}
		}
	}
}
MOTION
Frames: 7
Frame Time: 0.041667
-15.604588 8.967790 38.289093 -176.980922 -10.683770 -166.395109 6.824592 1.116241 -26.109029 -5.474768 1.236110 9.523656 0.000000 0.000000 0.000000 6.612230 6.521936 -4.414982 -13.242665 -5.803235 -74.869852 -27.221001 2.645690 6.856530 -44.614399 4.019110 -4.515015 0.000000 -3.225010 0.000000 10.334600 9.290430 28.310200 30.417400 -5.695960 4.352150 44.660801 -2.783880 -1.911987 0.000000 3.887840 0.000000 -1.434650 -7.055830 9.736160 4.743442 -23.128193 -11.430706 0.000000 0.000000 6.362230 -2.213141 21.841775 -5.145890 0.000000 0.000000 -11.178190 3.973517 29.077345 -11.297904 0.000000 0.000000 5.285160 4.917322 -30.260142 0.597864 0.000000 0.000000 -17.967980 
-15.598715 8.968292 38.284410 -177.022243 -10.777222 -166.347196 6.790144 1.081298 -26.040985 -5.290219 1.260819 9.568058 0.000000 0.000000 0.000000 6.288407 6.654255 -4.458395 -13.221561 -5.904561 -74.926945 -27.034000 2.881580 6.768160 -45.077000 5.235630 -4.967987 0.000000 -2.892600 0.000000 10.011700 9.877270 27.620399 30.179199 -5.872090 4.253970 44.898800 -3.535180 -2.287994 0.000000 3.230010 0.000000 -1.514840 -7.013770 10.163400 4.752603 -23.109738 -11.500881 0.000000 0.000000 6.429670 -2.145867 21.809107 -5.112490 0.000000 0.000000 -11.182920 3.974725 29.065963 -11.303882 0.000000 0.000000 5.258120 4.873111 -30.342178 0.611110 0.000000 0.000000 -17.983060 
-15.591437 8.968861 38.277485 -177.066693 -10.868836 -166.281147 6.711599 0.983282 -26.049725 -5.012778 1.293265 9.603520 0.000000 0.000000 0.000000 5.908200 6.794854 -4.404675 -13.228551 -6.033972 -74.928362 -26.834400 3.158070 6.627240 -45.565899 6.295710 -5.708008 0.000000 -2.561710 0.000000 9.608480 9.979620 27.644899 29.892401 -5.982260 4.240300 45.124199 -4.186880 -2.582001 0.000000 2.638270 0.000000 -1.467840 -7.323210 10.443700 4.758052 -23.013478 -11.558812 0.000000 0.000000 6.468230 -2.051964 21.716717 -5.058894 0.000000 0.000000 -11.231710 3.975045 29.097839 -11.313050 0.000000 0.000000 5.221620 4.814674 -30.468116 0.623965 0.000000 0.000000 -17.984700 
-15.585266 8.969579 38.275793 -177.113457 -11.031651 -166.296537 6.677901 0.921690 -25.969811 -4.823174 1.298634 9.691714 0.000000 0.000000 0.000000 5.629747 6.862969 -4.407139 -13.298056 -6.147033 -74.942915 -26.681400 3.316320 6.460810 -45.996300 7.222950 -6.154999 0.000000 -2.446460 0.000000 9.579910 10.085700 28.068100 29.665300 -6.018650 4.157120 45.318699 -4.751570 -2.898010 0.000000 2.002220 0.000000 -1.455240 -7.481220 10.960900 4.774048 -23.103164 -11.625958 0.000000 0.000000 6.586620 -2.022018 21.698418 -5.031007 0.000000 0.000000 -11.242410 4.019378 28.965483 -11.262927 0.000000 0.000000 5.206720 4.802227 -30.481191 0.629039 0.000000 0.000000 -17.991260 
-15.578293 8.969283 38.273795 -177.157518 -11.183248 -166.332065 6.762244 1.236813 -25.491064 -5.111962 1.322383 9.018692 0.000000 0.000000 0.000000 5.731734 6.831945 -3.935424 -13.323723 -6.222778 -75.011117 -26.296200 3.339370 6.790080 -46.371300 7.909510 -6.487000 0.000000 -2.245470 0.000000 9.611700 9.895010 28.184401 29.739000 -6.456930 4.343530 45.410900 -5.167910 -3.394012 0.000000 1.448580 0.000000 -1.296660 -7.838660 11.406500 4.777400 -23.132538 -11.655158 0.000000 0.000000 6.687330 -2.029902 21.615518 -5.041992 0.000000 0.000000 -11.239240 4.091450 28.810333 -11.177185 0.000000 0.000000 5.172320 4.743737 -30.492537 0.640021 0.000000 0.000000 -17.991390 
-15.571561 8.969845 38.272891 -177.209196 -11.345588 -166.382428 6.766014 1.220958 -25.436987 -5.025974 1.325742 9.154651 0.000000 0.000000 0.000000 5.539379 6.856168 -3.936865 -13.451661 -6.285367 -74.941674 -26.175301 3.487500 6.589370 -46.662701 8.362900 -6.554993 0.000000 -2.114600 0.000000 9.623060 9.821720 27.796301 29.641001 -6.429630 4.342740 45.468300 -5.459270 -3.713013 0.000000 0.883906 0.000000 -1.211830 -7.936510 12.130500 4.770054 -23.173901 -11.672886 0.000000 0.000000 6.778050 -2.000109 21.541877 -4.997151 0.000000 0.000000 -11.261810 4.155824 28.668892 -11.080166 0.000000 0.000000 5.134110 4.714472 -30.519958 0.655872 0.000000 0.000000 -17.968450 
-15.564880 8.970127 38.272006 -177.246706 -11.542913 -166.455388 6.787569 1.245184 -25.337707 -4.972224 1.326899 9.198958 0.000000 0.000000 0.000000 5.315146 6.933166 -3.850435 -13.483729 -6.358682 -74.885944 -26.139000 3.587120 6.635690 -46.798401 8.399130 -6.998993 0.000000 -1.888870 0.000000 9.585470 9.691350 28.181900 29.565599 -6.465070 4.389520 45.488499 -5.610550 -4.183014 0.000000 0.425521 0.000000 -1.123140 -8.156550 12.700000 4.786575 -23.288657 -11.675421 0.000000 0.000000 6.858840 -1.991511 21.501855 -4.974801 0.000000 0.000000 -11.262280 4.250785 28.498823 -10.956294 0.000000 0.000000 5.091020 4.676054 -30.547745 0.677659 0.000000 0.000000 -17.999290 
